<?xml version="1.0" encoding="utf-8" standalone="no"?>
<!DOCTYPE svg PUBLIC "-//W3C//DTD SVG 1.1//EN"
  "http://www.w3.org/Graphics/SVG/1.1/DTD/svg11.dtd">
<svg xmlns:xlink="http://www.w3.org/1999/xlink" width="288pt" height="216pt" viewBox="0 0 288 216" xmlns="http://www.w3.org/2000/svg" version="1.1">
 <metadata>
  <rdf:RDF xmlns:dc="http://purl.org/dc/elements/1.1/" xmlns:cc="http://creativecommons.org/ns#" xmlns:rdf="http://www.w3.org/1999/02/22-rdf-syntax-ns#">
   <cc:Work>
    <dc:type rdf:resource="http://purl.org/dc/dcmitype/StillImage"/>
    <dc:date>2025-04-29T03:46:41.147965</dc:date>
    <dc:format>image/svg+xml</dc:format>
    <dc:creator>
     <cc:Agent>
      <dc:title>Matplotlib v3.10.1, https://matplotlib.org/</dc:title>
     </cc:Agent>
    </dc:creator>
   </cc:Work>
  </rdf:RDF>
 </metadata>
 <defs>
  <style type="text/css">*{stroke-linejoin: round; stroke-linecap: butt}</style>
 </defs>
 <g id="figure_1">
  <g id="patch_1">
   <path d="M 0 216 
L 288 216 
L 288 0 
L 0 0 
z
" style="fill: #ffffff"/>
  </g>
  <g id="axes_1">
   <g id="patch_2">
    <path d="M 44.57 155.41 
L 277.2 155.41 
L 277.2 26.88 
L 44.57 26.88 
z
" style="fill: #ffffff"/>
   </g>
   <g id="patch_3">
    <path d="M 55.144091 155.41 
L 78.249652 155.41 
L 78.249652 33.000476 
L 55.144091 33.000476 
z
" clip-path="url(#p8958457b84)" style="fill: #1f77b4"/>
   </g>
   <g id="patch_4">
    <path d="M 57.066298 155.41 
L 80.171859 155.41 
L 80.171859 97.775516 
L 57.066298 97.775516 
z
" clip-path="url(#p8958457b84)" style="fill: #1f77b4"/>
   </g>
   <g id="patch_5">
    <path d="M 58.988504 155.41 
L 82.094065 155.41 
L 82.094065 131.438135 
L 58.988504 131.438135 
z
" clip-path="url(#p8958457b84)" style="fill: #1f77b4"/>
   </g>
   <g id="patch_6">
    <path d="M 60.910711 155.41 
L 84.016272 155.41 
L 84.016272 141.128889 
L 60.910711 141.128889 
z
" clip-path="url(#p8958457b84)" style="fill: #1f77b4"/>
   </g>
   <g id="patch_7">
    <path d="M 62.832918 155.41 
L 85.938479 155.41 
L 85.938479 145.209206 
L 62.832918 145.209206 
z
" clip-path="url(#p8958457b84)" style="fill: #1f77b4"/>
   </g>
   <g id="patch_8">
    <path d="M 64.755124 155.41 
L 87.860685 155.41 
L 87.860685 148.779484 
L 64.755124 148.779484 
z
" clip-path="url(#p8958457b84)" style="fill: #1f77b4"/>
   </g>
   <g id="patch_9">
    <path d="M 66.677331 155.41 
L 89.782892 155.41 
L 89.782892 152.349762 
L 66.677331 152.349762 
z
" clip-path="url(#p8958457b84)" style="fill: #1f77b4"/>
   </g>
   <g id="patch_10">
    <path d="M 68.599538 155.41 
L 91.705099 155.41 
L 91.705099 152.859802 
L 68.599538 152.859802 
z
" clip-path="url(#p8958457b84)" style="fill: #1f77b4"/>
   </g>
   <g id="patch_11">
    <path d="M 70.521745 155.41 
L 93.627306 155.41 
L 93.627306 153.369841 
L 70.521745 153.369841 
z
" clip-path="url(#p8958457b84)" style="fill: #1f77b4"/>
   </g>
   <g id="patch_12">
    <path d="M 72.443951 155.41 
L 95.549512 155.41 
L 95.549512 154.389921 
L 72.443951 154.389921 
z
" clip-path="url(#p8958457b84)" style="fill: #1f77b4"/>
   </g>
   <g id="patch_13">
    <path d="M 74.366158 155.41 
L 97.471719 155.41 
L 97.471719 154.89996 
L 74.366158 154.89996 
z
" clip-path="url(#p8958457b84)" style="fill: #1f77b4"/>
   </g>
   <g id="patch_14">
    <path d="M 76.288365 155.41 
L 99.393926 155.41 
L 99.393926 153.369841 
L 76.288365 153.369841 
z
" clip-path="url(#p8958457b84)" style="fill: #1f77b4"/>
   </g>
   <g id="patch_15">
    <path d="M 78.210571 155.41 
L 101.316132 155.41 
L 101.316132 154.89996 
L 78.210571 154.89996 
z
" clip-path="url(#p8958457b84)" style="fill: #1f77b4"/>
   </g>
   <g id="patch_16">
    <path d="M 80.132778 155.41 
L 103.238339 155.41 
L 103.238339 154.89996 
L 80.132778 154.89996 
z
" clip-path="url(#p8958457b84)" style="fill: #1f77b4"/>
   </g>
   <g id="patch_17">
    <path d="M 82.054985 155.41 
L 105.160546 155.41 
L 105.160546 154.389921 
L 82.054985 154.389921 
z
" clip-path="url(#p8958457b84)" style="fill: #1f77b4"/>
   </g>
   <g id="patch_18">
    <path d="M 83.977191 155.41 
L 107.082753 155.41 
L 107.082753 154.89996 
L 83.977191 154.89996 
z
" clip-path="url(#p8958457b84)" style="fill: #1f77b4"/>
   </g>
   <g id="patch_19">
    <path d="M 85.899398 155.41 
L 109.004959 155.41 
L 109.004959 155.41 
L 85.899398 155.41 
z
" clip-path="url(#p8958457b84)" style="fill: #1f77b4"/>
   </g>
   <g id="patch_20">
    <path d="M 87.821605 155.41 
L 110.927166 155.41 
L 110.927166 155.41 
L 87.821605 155.41 
z
" clip-path="url(#p8958457b84)" style="fill: #1f77b4"/>
   </g>
   <g id="patch_21">
    <path d="M 89.743812 155.41 
L 112.849373 155.41 
L 112.849373 154.89996 
L 89.743812 154.89996 
z
" clip-path="url(#p8958457b84)" style="fill: #1f77b4"/>
   </g>
   <g id="patch_22">
    <path d="M 91.666018 155.41 
L 114.771579 155.41 
L 114.771579 155.41 
L 91.666018 155.41 
z
" clip-path="url(#p8958457b84)" style="fill: #1f77b4"/>
   </g>
   <g id="patch_23">
    <path d="M 93.588225 155.41 
L 116.693786 155.41 
L 116.693786 155.41 
L 93.588225 155.41 
z
" clip-path="url(#p8958457b84)" style="fill: #1f77b4"/>
   </g>
   <g id="patch_24">
    <path d="M 95.510432 155.41 
L 118.615993 155.41 
L 118.615993 154.89996 
L 95.510432 154.89996 
z
" clip-path="url(#p8958457b84)" style="fill: #1f77b4"/>
   </g>
   <g id="patch_25">
    <path d="M 97.432638 155.41 
L 120.538199 155.41 
L 120.538199 155.41 
L 97.432638 155.41 
z
" clip-path="url(#p8958457b84)" style="fill: #1f77b4"/>
   </g>
   <g id="patch_26">
    <path d="M 99.354845 155.41 
L 122.460406 155.41 
L 122.460406 154.89996 
L 99.354845 154.89996 
z
" clip-path="url(#p8958457b84)" style="fill: #1f77b4"/>
   </g>
   <g id="patch_27">
    <path d="M 101.277052 155.41 
L 124.382613 155.41 
L 124.382613 154.89996 
L 101.277052 154.89996 
z
" clip-path="url(#p8958457b84)" style="fill: #1f77b4"/>
   </g>
   <g id="patch_28">
    <path d="M 103.199259 155.41 
L 126.30482 155.41 
L 126.30482 155.41 
L 103.199259 155.41 
z
" clip-path="url(#p8958457b84)" style="fill: #1f77b4"/>
   </g>
   <g id="patch_29">
    <path d="M 105.121465 155.41 
L 128.227026 155.41 
L 128.227026 155.41 
L 105.121465 155.41 
z
" clip-path="url(#p8958457b84)" style="fill: #1f77b4"/>
   </g>
   <g id="patch_30">
    <path d="M 107.043672 155.41 
L 130.149233 155.41 
L 130.149233 155.41 
L 107.043672 155.41 
z
" clip-path="url(#p8958457b84)" style="fill: #1f77b4"/>
   </g>
   <g id="patch_31">
    <path d="M 108.965879 155.41 
L 132.07144 155.41 
L 132.07144 153.879881 
L 108.965879 153.879881 
z
" clip-path="url(#p8958457b84)" style="fill: #1f77b4"/>
   </g>
   <g id="patch_32">
    <path d="M 110.888085 155.41 
L 133.993646 155.41 
L 133.993646 154.89996 
L 110.888085 154.89996 
z
" clip-path="url(#p8958457b84)" style="fill: #1f77b4"/>
   </g>
   <g id="patch_33">
    <path d="M 112.810292 155.41 
L 135.915853 155.41 
L 135.915853 155.41 
L 112.810292 155.41 
z
" clip-path="url(#p8958457b84)" style="fill: #1f77b4"/>
   </g>
   <g id="patch_34">
    <path d="M 114.732499 155.41 
L 137.83806 155.41 
L 137.83806 155.41 
L 114.732499 155.41 
z
" clip-path="url(#p8958457b84)" style="fill: #1f77b4"/>
   </g>
   <g id="patch_35">
    <path d="M 116.654705 155.41 
L 139.760267 155.41 
L 139.760267 155.41 
L 116.654705 155.41 
z
" clip-path="url(#p8958457b84)" style="fill: #1f77b4"/>
   </g>
   <g id="patch_36">
    <path d="M 118.576912 155.41 
L 141.682473 155.41 
L 141.682473 155.41 
L 118.576912 155.41 
z
" clip-path="url(#p8958457b84)" style="fill: #1f77b4"/>
   </g>
   <g id="patch_37">
    <path d="M 120.499119 155.41 
L 143.60468 155.41 
L 143.60468 155.41 
L 120.499119 155.41 
z
" clip-path="url(#p8958457b84)" style="fill: #1f77b4"/>
   </g>
   <g id="patch_38">
    <path d="M 122.421326 155.41 
L 145.526887 155.41 
L 145.526887 155.41 
L 122.421326 155.41 
z
" clip-path="url(#p8958457b84)" style="fill: #1f77b4"/>
   </g>
   <g id="patch_39">
    <path d="M 124.343532 155.41 
L 147.449093 155.41 
L 147.449093 155.41 
L 124.343532 155.41 
z
" clip-path="url(#p8958457b84)" style="fill: #1f77b4"/>
   </g>
   <g id="patch_40">
    <path d="M 126.265739 155.41 
L 149.3713 155.41 
L 149.3713 154.89996 
L 126.265739 154.89996 
z
" clip-path="url(#p8958457b84)" style="fill: #1f77b4"/>
   </g>
   <g id="patch_41">
    <path d="M 128.187946 155.41 
L 151.293507 155.41 
L 151.293507 155.41 
L 128.187946 155.41 
z
" clip-path="url(#p8958457b84)" style="fill: #1f77b4"/>
   </g>
   <g id="patch_42">
    <path d="M 130.110152 155.41 
L 153.215713 155.41 
L 153.215713 155.41 
L 130.110152 155.41 
z
" clip-path="url(#p8958457b84)" style="fill: #1f77b4"/>
   </g>
   <g id="patch_43">
    <path d="M 132.032359 155.41 
L 155.13792 155.41 
L 155.13792 155.41 
L 132.032359 155.41 
z
" clip-path="url(#p8958457b84)" style="fill: #1f77b4"/>
   </g>
   <g id="patch_44">
    <path d="M 133.954566 155.41 
L 157.060127 155.41 
L 157.060127 155.41 
L 133.954566 155.41 
z
" clip-path="url(#p8958457b84)" style="fill: #1f77b4"/>
   </g>
   <g id="patch_45">
    <path d="M 135.876773 155.41 
L 158.982334 155.41 
L 158.982334 155.41 
L 135.876773 155.41 
z
" clip-path="url(#p8958457b84)" style="fill: #1f77b4"/>
   </g>
   <g id="patch_46">
    <path d="M 137.798979 155.41 
L 160.90454 155.41 
L 160.90454 155.41 
L 137.798979 155.41 
z
" clip-path="url(#p8958457b84)" style="fill: #1f77b4"/>
   </g>
   <g id="patch_47">
    <path d="M 139.721186 155.41 
L 162.826747 155.41 
L 162.826747 155.41 
L 139.721186 155.41 
z
" clip-path="url(#p8958457b84)" style="fill: #1f77b4"/>
   </g>
   <g id="patch_48">
    <path d="M 141.643393 155.41 
L 164.748954 155.41 
L 164.748954 155.41 
L 141.643393 155.41 
z
" clip-path="url(#p8958457b84)" style="fill: #1f77b4"/>
   </g>
   <g id="patch_49">
    <path d="M 143.565599 155.41 
L 166.67116 155.41 
L 166.67116 155.41 
L 143.565599 155.41 
z
" clip-path="url(#p8958457b84)" style="fill: #1f77b4"/>
   </g>
   <g id="patch_50">
    <path d="M 145.487806 155.41 
L 168.593367 155.41 
L 168.593367 155.41 
L 145.487806 155.41 
z
" clip-path="url(#p8958457b84)" style="fill: #1f77b4"/>
   </g>
   <g id="patch_51">
    <path d="M 147.410013 155.41 
L 170.515574 155.41 
L 170.515574 155.41 
L 147.410013 155.41 
z
" clip-path="url(#p8958457b84)" style="fill: #1f77b4"/>
   </g>
   <g id="patch_52">
    <path d="M 149.332219 155.41 
L 172.437781 155.41 
L 172.437781 155.41 
L 149.332219 155.41 
z
" clip-path="url(#p8958457b84)" style="fill: #1f77b4"/>
   </g>
   <g id="patch_53">
    <path d="M 151.254426 155.41 
L 174.359987 155.41 
L 174.359987 155.41 
L 151.254426 155.41 
z
" clip-path="url(#p8958457b84)" style="fill: #1f77b4"/>
   </g>
   <g id="patch_54">
    <path d="M 153.176633 155.41 
L 176.282194 155.41 
L 176.282194 155.41 
L 153.176633 155.41 
z
" clip-path="url(#p8958457b84)" style="fill: #1f77b4"/>
   </g>
   <g id="patch_55">
    <path d="M 155.09884 155.41 
L 178.204401 155.41 
L 178.204401 155.41 
L 155.09884 155.41 
z
" clip-path="url(#p8958457b84)" style="fill: #1f77b4"/>
   </g>
   <g id="patch_56">
    <path d="M 157.021046 155.41 
L 180.126607 155.41 
L 180.126607 155.41 
L 157.021046 155.41 
z
" clip-path="url(#p8958457b84)" style="fill: #1f77b4"/>
   </g>
   <g id="patch_57">
    <path d="M 158.943253 155.41 
L 182.048814 155.41 
L 182.048814 155.41 
L 158.943253 155.41 
z
" clip-path="url(#p8958457b84)" style="fill: #1f77b4"/>
   </g>
   <g id="patch_58">
    <path d="M 160.86546 155.41 
L 183.971021 155.41 
L 183.971021 155.41 
L 160.86546 155.41 
z
" clip-path="url(#p8958457b84)" style="fill: #1f77b4"/>
   </g>
   <g id="patch_59">
    <path d="M 162.787666 155.41 
L 185.893227 155.41 
L 185.893227 155.41 
L 162.787666 155.41 
z
" clip-path="url(#p8958457b84)" style="fill: #1f77b4"/>
   </g>
   <g id="patch_60">
    <path d="M 164.709873 155.41 
L 187.815434 155.41 
L 187.815434 155.41 
L 164.709873 155.41 
z
" clip-path="url(#p8958457b84)" style="fill: #1f77b4"/>
   </g>
   <g id="patch_61">
    <path d="M 166.63208 155.41 
L 189.737641 155.41 
L 189.737641 155.41 
L 166.63208 155.41 
z
" clip-path="url(#p8958457b84)" style="fill: #1f77b4"/>
   </g>
   <g id="patch_62">
    <path d="M 168.554287 155.41 
L 191.659848 155.41 
L 191.659848 155.41 
L 168.554287 155.41 
z
" clip-path="url(#p8958457b84)" style="fill: #1f77b4"/>
   </g>
   <g id="patch_63">
    <path d="M 170.476493 155.41 
L 193.582054 155.41 
L 193.582054 155.41 
L 170.476493 155.41 
z
" clip-path="url(#p8958457b84)" style="fill: #1f77b4"/>
   </g>
   <g id="patch_64">
    <path d="M 172.3987 155.41 
L 195.504261 155.41 
L 195.504261 155.41 
L 172.3987 155.41 
z
" clip-path="url(#p8958457b84)" style="fill: #1f77b4"/>
   </g>
   <g id="patch_65">
    <path d="M 174.320907 155.41 
L 197.426468 155.41 
L 197.426468 154.89996 
L 174.320907 154.89996 
z
" clip-path="url(#p8958457b84)" style="fill: #1f77b4"/>
   </g>
   <g id="patch_66">
    <path d="M 176.243113 155.41 
L 199.348674 155.41 
L 199.348674 155.41 
L 176.243113 155.41 
z
" clip-path="url(#p8958457b84)" style="fill: #1f77b4"/>
   </g>
   <g id="patch_67">
    <path d="M 178.16532 155.41 
L 201.270881 155.41 
L 201.270881 155.41 
L 178.16532 155.41 
z
" clip-path="url(#p8958457b84)" style="fill: #1f77b4"/>
   </g>
   <g id="patch_68">
    <path d="M 180.087527 155.41 
L 203.193088 155.41 
L 203.193088 155.41 
L 180.087527 155.41 
z
" clip-path="url(#p8958457b84)" style="fill: #1f77b4"/>
   </g>
   <g id="patch_69">
    <path d="M 182.009733 155.41 
L 205.115295 155.41 
L 205.115295 155.41 
L 182.009733 155.41 
z
" clip-path="url(#p8958457b84)" style="fill: #1f77b4"/>
   </g>
   <g id="patch_70">
    <path d="M 183.93194 155.41 
L 207.037501 155.41 
L 207.037501 155.41 
L 183.93194 155.41 
z
" clip-path="url(#p8958457b84)" style="fill: #1f77b4"/>
   </g>
   <g id="patch_71">
    <path d="M 185.854147 155.41 
L 208.959708 155.41 
L 208.959708 155.41 
L 185.854147 155.41 
z
" clip-path="url(#p8958457b84)" style="fill: #1f77b4"/>
   </g>
   <g id="patch_72">
    <path d="M 187.776354 155.41 
L 210.881915 155.41 
L 210.881915 155.41 
L 187.776354 155.41 
z
" clip-path="url(#p8958457b84)" style="fill: #1f77b4"/>
   </g>
   <g id="patch_73">
    <path d="M 189.69856 155.41 
L 212.804121 155.41 
L 212.804121 155.41 
L 189.69856 155.41 
z
" clip-path="url(#p8958457b84)" style="fill: #1f77b4"/>
   </g>
   <g id="patch_74">
    <path d="M 191.620767 155.41 
L 214.726328 155.41 
L 214.726328 155.41 
L 191.620767 155.41 
z
" clip-path="url(#p8958457b84)" style="fill: #1f77b4"/>
   </g>
   <g id="patch_75">
    <path d="M 193.542974 155.41 
L 216.648535 155.41 
L 216.648535 155.41 
L 193.542974 155.41 
z
" clip-path="url(#p8958457b84)" style="fill: #1f77b4"/>
   </g>
   <g id="patch_76">
    <path d="M 195.46518 155.41 
L 218.570741 155.41 
L 218.570741 155.41 
L 195.46518 155.41 
z
" clip-path="url(#p8958457b84)" style="fill: #1f77b4"/>
   </g>
   <g id="patch_77">
    <path d="M 197.387387 155.41 
L 220.492948 155.41 
L 220.492948 155.41 
L 197.387387 155.41 
z
" clip-path="url(#p8958457b84)" style="fill: #1f77b4"/>
   </g>
   <g id="patch_78">
    <path d="M 199.309594 155.41 
L 222.415155 155.41 
L 222.415155 155.41 
L 199.309594 155.41 
z
" clip-path="url(#p8958457b84)" style="fill: #1f77b4"/>
   </g>
   <g id="patch_79">
    <path d="M 201.231801 155.41 
L 224.337362 155.41 
L 224.337362 155.41 
L 201.231801 155.41 
z
" clip-path="url(#p8958457b84)" style="fill: #1f77b4"/>
   </g>
   <g id="patch_80">
    <path d="M 203.154007 155.41 
L 226.259568 155.41 
L 226.259568 155.41 
L 203.154007 155.41 
z
" clip-path="url(#p8958457b84)" style="fill: #1f77b4"/>
   </g>
   <g id="patch_81">
    <path d="M 205.076214 155.41 
L 228.181775 155.41 
L 228.181775 155.41 
L 205.076214 155.41 
z
" clip-path="url(#p8958457b84)" style="fill: #1f77b4"/>
   </g>
   <g id="patch_82">
    <path d="M 206.998421 155.41 
L 230.103982 155.41 
L 230.103982 155.41 
L 206.998421 155.41 
z
" clip-path="url(#p8958457b84)" style="fill: #1f77b4"/>
   </g>
   <g id="patch_83">
    <path d="M 208.920627 155.41 
L 232.026188 155.41 
L 232.026188 155.41 
L 208.920627 155.41 
z
" clip-path="url(#p8958457b84)" style="fill: #1f77b4"/>
   </g>
   <g id="patch_84">
    <path d="M 210.842834 155.41 
L 233.948395 155.41 
L 233.948395 155.41 
L 210.842834 155.41 
z
" clip-path="url(#p8958457b84)" style="fill: #1f77b4"/>
   </g>
   <g id="patch_85">
    <path d="M 212.765041 155.41 
L 235.870602 155.41 
L 235.870602 155.41 
L 212.765041 155.41 
z
" clip-path="url(#p8958457b84)" style="fill: #1f77b4"/>
   </g>
   <g id="patch_86">
    <path d="M 214.687247 155.41 
L 237.792809 155.41 
L 237.792809 154.89996 
L 214.687247 154.89996 
z
" clip-path="url(#p8958457b84)" style="fill: #1f77b4"/>
   </g>
   <g id="patch_87">
    <path d="M 216.609454 155.41 
L 239.715015 155.41 
L 239.715015 155.41 
L 216.609454 155.41 
z
" clip-path="url(#p8958457b84)" style="fill: #1f77b4"/>
   </g>
   <g id="patch_88">
    <path d="M 218.531661 155.41 
L 241.637222 155.41 
L 241.637222 155.41 
L 218.531661 155.41 
z
" clip-path="url(#p8958457b84)" style="fill: #1f77b4"/>
   </g>
   <g id="patch_89">
    <path d="M 220.453868 155.41 
L 243.559429 155.41 
L 243.559429 155.41 
L 220.453868 155.41 
z
" clip-path="url(#p8958457b84)" style="fill: #1f77b4"/>
   </g>
   <g id="patch_90">
    <path d="M 222.376074 155.41 
L 245.481635 155.41 
L 245.481635 155.41 
L 222.376074 155.41 
z
" clip-path="url(#p8958457b84)" style="fill: #1f77b4"/>
   </g>
   <g id="patch_91">
    <path d="M 224.298281 155.41 
L 247.403842 155.41 
L 247.403842 155.41 
L 224.298281 155.41 
z
" clip-path="url(#p8958457b84)" style="fill: #1f77b4"/>
   </g>
   <g id="patch_92">
    <path d="M 226.220488 155.41 
L 249.326049 155.41 
L 249.326049 155.41 
L 226.220488 155.41 
z
" clip-path="url(#p8958457b84)" style="fill: #1f77b4"/>
   </g>
   <g id="patch_93">
    <path d="M 228.142694 155.41 
L 251.248255 155.41 
L 251.248255 155.41 
L 228.142694 155.41 
z
" clip-path="url(#p8958457b84)" style="fill: #1f77b4"/>
   </g>
   <g id="patch_94">
    <path d="M 230.064901 155.41 
L 253.170462 155.41 
L 253.170462 154.89996 
L 230.064901 154.89996 
z
" clip-path="url(#p8958457b84)" style="fill: #1f77b4"/>
   </g>
   <g id="patch_95">
    <path d="M 231.987108 155.41 
L 255.092669 155.41 
L 255.092669 155.41 
L 231.987108 155.41 
z
" clip-path="url(#p8958457b84)" style="fill: #1f77b4"/>
   </g>
   <g id="patch_96">
    <path d="M 233.909315 155.41 
L 257.014876 155.41 
L 257.014876 155.41 
L 233.909315 155.41 
z
" clip-path="url(#p8958457b84)" style="fill: #1f77b4"/>
   </g>
   <g id="patch_97">
    <path d="M 235.831521 155.41 
L 258.937082 155.41 
L 258.937082 155.41 
L 235.831521 155.41 
z
" clip-path="url(#p8958457b84)" style="fill: #1f77b4"/>
   </g>
   <g id="patch_98">
    <path d="M 237.753728 155.41 
L 260.859289 155.41 
L 260.859289 155.41 
L 237.753728 155.41 
z
" clip-path="url(#p8958457b84)" style="fill: #1f77b4"/>
   </g>
   <g id="patch_99">
    <path d="M 239.675935 155.41 
L 262.781496 155.41 
L 262.781496 155.41 
L 239.675935 155.41 
z
" clip-path="url(#p8958457b84)" style="fill: #1f77b4"/>
   </g>
   <g id="patch_100">
    <path d="M 241.598141 155.41 
L 264.703702 155.41 
L 264.703702 155.41 
L 241.598141 155.41 
z
" clip-path="url(#p8958457b84)" style="fill: #1f77b4"/>
   </g>
   <g id="patch_101">
    <path d="M 243.520348 155.41 
L 266.625909 155.41 
L 266.625909 154.89996 
L 243.520348 154.89996 
z
" clip-path="url(#p8958457b84)" style="fill: #1f77b4"/>
   </g>
   <g id="matplotlib.axis_1">
    <g id="xtick_1">
     <g id="line2d_1">
      <path d="M 66.696871 155.41 
L 66.696871 26.88 
" clip-path="url(#p8958457b84)" style="fill: none; stroke-dasharray: 2.96,1.28; stroke-dashoffset: 0; stroke: #b0b0b0; stroke-opacity: 0.7; stroke-width: 0.8"/>
     </g>
     <g id="line2d_2">
      <defs>
       <path id="mcc0ec787f2" d="M 0 0 
L 0 3.5 
" style="stroke: #000000; stroke-width: 0.8"/>
      </defs>
      <g>
       <use xlink:href="#mcc0ec787f2" x="66.696871" y="155.41" style="stroke: #000000; stroke-width: 0.8"/>
      </g>
     </g>
     <g id="text_1">
      <!-- 0.000 -->
      <g transform="translate(69.456246 191.038125) rotate(-90) scale(0.1 -0.1)">
       <defs>
        <path id="DejaVuSans-30" d="M 2034 4250 
Q 1547 4250 1301 3770 
Q 1056 3291 1056 2328 
Q 1056 1369 1301 889 
Q 1547 409 2034 409 
Q 2525 409 2770 889 
Q 3016 1369 3016 2328 
Q 3016 3291 2770 3770 
Q 2525 4250 2034 4250 
z
M 2034 4750 
Q 2819 4750 3233 4129 
Q 3647 3509 3647 2328 
Q 3647 1150 3233 529 
Q 2819 -91 2034 -91 
Q 1250 -91 836 529 
Q 422 1150 422 2328 
Q 422 3509 836 4129 
Q 1250 4750 2034 4750 
z
" transform="scale(0.015625)"/>
        <path id="DejaVuSans-2e" d="M 684 794 
L 1344 794 
L 1344 0 
L 684 0 
L 684 794 
z
" transform="scale(0.015625)"/>
       </defs>
       <use xlink:href="#DejaVuSans-30"/>
       <use xlink:href="#DejaVuSans-2e" transform="translate(63.623047 0)"/>
       <use xlink:href="#DejaVuSans-30" transform="translate(95.410156 0)"/>
       <use xlink:href="#DejaVuSans-30" transform="translate(159.033203 0)"/>
       <use xlink:href="#DejaVuSans-30" transform="translate(222.65625 0)"/>
      </g>
     </g>
    </g>
    <g id="xtick_2">
     <g id="line2d_3">
      <path d="M 83.996732 155.41 
L 83.996732 26.88 
" clip-path="url(#p8958457b84)" style="fill: none; stroke-dasharray: 2.96,1.28; stroke-dashoffset: 0; stroke: #b0b0b0; stroke-opacity: 0.7; stroke-width: 0.8"/>
     </g>
     <g id="line2d_4">
      <g>
       <use xlink:href="#mcc0ec787f2" x="83.996732" y="155.41" style="stroke: #000000; stroke-width: 0.8"/>
      </g>
     </g>
     <g id="text_2">
      <!-- 0.599 -->
      <g transform="translate(86.756107 191.038125) rotate(-90) scale(0.1 -0.1)">
       <defs>
        <path id="DejaVuSans-35" d="M 691 4666 
L 3169 4666 
L 3169 4134 
L 1269 4134 
L 1269 2991 
Q 1406 3038 1543 3061 
Q 1681 3084 1819 3084 
Q 2600 3084 3056 2656 
Q 3513 2228 3513 1497 
Q 3513 744 3044 326 
Q 2575 -91 1722 -91 
Q 1428 -91 1123 -41 
Q 819 9 494 109 
L 494 744 
Q 775 591 1075 516 
Q 1375 441 1709 441 
Q 2250 441 2565 725 
Q 2881 1009 2881 1497 
Q 2881 1984 2565 2268 
Q 2250 2553 1709 2553 
Q 1456 2553 1204 2497 
Q 953 2441 691 2322 
L 691 4666 
z
" transform="scale(0.015625)"/>
        <path id="DejaVuSans-39" d="M 703 97 
L 703 672 
Q 941 559 1184 500 
Q 1428 441 1663 441 
Q 2288 441 2617 861 
Q 2947 1281 2994 2138 
Q 2813 1869 2534 1725 
Q 2256 1581 1919 1581 
Q 1219 1581 811 2004 
Q 403 2428 403 3163 
Q 403 3881 828 4315 
Q 1253 4750 1959 4750 
Q 2769 4750 3195 4129 
Q 3622 3509 3622 2328 
Q 3622 1225 3098 567 
Q 2575 -91 1691 -91 
Q 1453 -91 1209 -44 
Q 966 3 703 97 
z
M 1959 2075 
Q 2384 2075 2632 2365 
Q 2881 2656 2881 3163 
Q 2881 3666 2632 3958 
Q 2384 4250 1959 4250 
Q 1534 4250 1286 3958 
Q 1038 3666 1038 3163 
Q 1038 2656 1286 2365 
Q 1534 2075 1959 2075 
z
" transform="scale(0.015625)"/>
       </defs>
       <use xlink:href="#DejaVuSans-30"/>
       <use xlink:href="#DejaVuSans-2e" transform="translate(63.623047 0)"/>
       <use xlink:href="#DejaVuSans-35" transform="translate(95.410156 0)"/>
       <use xlink:href="#DejaVuSans-39" transform="translate(159.033203 0)"/>
       <use xlink:href="#DejaVuSans-39" transform="translate(222.65625 0)"/>
      </g>
     </g>
    </g>
    <g id="xtick_3">
     <g id="line2d_5">
      <path d="M 101.296592 155.41 
L 101.296592 26.88 
" clip-path="url(#p8958457b84)" style="fill: none; stroke-dasharray: 2.96,1.28; stroke-dashoffset: 0; stroke: #b0b0b0; stroke-opacity: 0.7; stroke-width: 0.8"/>
     </g>
     <g id="line2d_6">
      <g>
       <use xlink:href="#mcc0ec787f2" x="101.296592" y="155.41" style="stroke: #000000; stroke-width: 0.8"/>
      </g>
     </g>
     <g id="text_3">
      <!-- 1.198 -->
      <g transform="translate(104.055967 191.038125) rotate(-90) scale(0.1 -0.1)">
       <defs>
        <path id="DejaVuSans-31" d="M 794 531 
L 1825 531 
L 1825 4091 
L 703 3866 
L 703 4441 
L 1819 4666 
L 2450 4666 
L 2450 531 
L 3481 531 
L 3481 0 
L 794 0 
L 794 531 
z
" transform="scale(0.015625)"/>
        <path id="DejaVuSans-38" d="M 2034 2216 
Q 1584 2216 1326 1975 
Q 1069 1734 1069 1313 
Q 1069 891 1326 650 
Q 1584 409 2034 409 
Q 2484 409 2743 651 
Q 3003 894 3003 1313 
Q 3003 1734 2745 1975 
Q 2488 2216 2034 2216 
z
M 1403 2484 
Q 997 2584 770 2862 
Q 544 3141 544 3541 
Q 544 4100 942 4425 
Q 1341 4750 2034 4750 
Q 2731 4750 3128 4425 
Q 3525 4100 3525 3541 
Q 3525 3141 3298 2862 
Q 3072 2584 2669 2484 
Q 3125 2378 3379 2068 
Q 3634 1759 3634 1313 
Q 3634 634 3220 271 
Q 2806 -91 2034 -91 
Q 1263 -91 848 271 
Q 434 634 434 1313 
Q 434 1759 690 2068 
Q 947 2378 1403 2484 
z
M 1172 3481 
Q 1172 3119 1398 2916 
Q 1625 2713 2034 2713 
Q 2441 2713 2670 2916 
Q 2900 3119 2900 3481 
Q 2900 3844 2670 4047 
Q 2441 4250 2034 4250 
Q 1625 4250 1398 4047 
Q 1172 3844 1172 3481 
z
" transform="scale(0.015625)"/>
       </defs>
       <use xlink:href="#DejaVuSans-31"/>
       <use xlink:href="#DejaVuSans-2e" transform="translate(63.623047 0)"/>
       <use xlink:href="#DejaVuSans-31" transform="translate(95.410156 0)"/>
       <use xlink:href="#DejaVuSans-39" transform="translate(159.033203 0)"/>
       <use xlink:href="#DejaVuSans-38" transform="translate(222.65625 0)"/>
      </g>
     </g>
    </g>
    <g id="xtick_4">
     <g id="line2d_7">
      <path d="M 118.596452 155.41 
L 118.596452 26.88 
" clip-path="url(#p8958457b84)" style="fill: none; stroke-dasharray: 2.96,1.28; stroke-dashoffset: 0; stroke: #b0b0b0; stroke-opacity: 0.7; stroke-width: 0.8"/>
     </g>
     <g id="line2d_8">
      <g>
       <use xlink:href="#mcc0ec787f2" x="118.596452" y="155.41" style="stroke: #000000; stroke-width: 0.8"/>
      </g>
     </g>
     <g id="text_4">
      <!-- 1.797 -->
      <g transform="translate(121.355827 191.038125) rotate(-90) scale(0.1 -0.1)">
       <defs>
        <path id="DejaVuSans-37" d="M 525 4666 
L 3525 4666 
L 3525 4397 
L 1831 0 
L 1172 0 
L 2766 4134 
L 525 4134 
L 525 4666 
z
" transform="scale(0.015625)"/>
       </defs>
       <use xlink:href="#DejaVuSans-31"/>
       <use xlink:href="#DejaVuSans-2e" transform="translate(63.623047 0)"/>
       <use xlink:href="#DejaVuSans-37" transform="translate(95.410156 0)"/>
       <use xlink:href="#DejaVuSans-39" transform="translate(159.033203 0)"/>
       <use xlink:href="#DejaVuSans-37" transform="translate(222.65625 0)"/>
      </g>
     </g>
    </g>
    <g id="xtick_5">
     <g id="line2d_9">
      <path d="M 135.896313 155.41 
L 135.896313 26.88 
" clip-path="url(#p8958457b84)" style="fill: none; stroke-dasharray: 2.96,1.28; stroke-dashoffset: 0; stroke: #b0b0b0; stroke-opacity: 0.7; stroke-width: 0.8"/>
     </g>
     <g id="line2d_10">
      <g>
       <use xlink:href="#mcc0ec787f2" x="135.896313" y="155.41" style="stroke: #000000; stroke-width: 0.8"/>
      </g>
     </g>
     <g id="text_5">
      <!-- 2.396 -->
      <g transform="translate(138.655688 191.038125) rotate(-90) scale(0.1 -0.1)">
       <defs>
        <path id="DejaVuSans-32" d="M 1228 531 
L 3431 531 
L 3431 0 
L 469 0 
L 469 531 
Q 828 903 1448 1529 
Q 2069 2156 2228 2338 
Q 2531 2678 2651 2914 
Q 2772 3150 2772 3378 
Q 2772 3750 2511 3984 
Q 2250 4219 1831 4219 
Q 1534 4219 1204 4116 
Q 875 4013 500 3803 
L 500 4441 
Q 881 4594 1212 4672 
Q 1544 4750 1819 4750 
Q 2544 4750 2975 4387 
Q 3406 4025 3406 3419 
Q 3406 3131 3298 2873 
Q 3191 2616 2906 2266 
Q 2828 2175 2409 1742 
Q 1991 1309 1228 531 
z
" transform="scale(0.015625)"/>
        <path id="DejaVuSans-33" d="M 2597 2516 
Q 3050 2419 3304 2112 
Q 3559 1806 3559 1356 
Q 3559 666 3084 287 
Q 2609 -91 1734 -91 
Q 1441 -91 1130 -33 
Q 819 25 488 141 
L 488 750 
Q 750 597 1062 519 
Q 1375 441 1716 441 
Q 2309 441 2620 675 
Q 2931 909 2931 1356 
Q 2931 1769 2642 2001 
Q 2353 2234 1838 2234 
L 1294 2234 
L 1294 2753 
L 1863 2753 
Q 2328 2753 2575 2939 
Q 2822 3125 2822 3475 
Q 2822 3834 2567 4026 
Q 2313 4219 1838 4219 
Q 1578 4219 1281 4162 
Q 984 4106 628 3988 
L 628 4550 
Q 988 4650 1302 4700 
Q 1616 4750 1894 4750 
Q 2613 4750 3031 4423 
Q 3450 4097 3450 3541 
Q 3450 3153 3228 2886 
Q 3006 2619 2597 2516 
z
" transform="scale(0.015625)"/>
        <path id="DejaVuSans-36" d="M 2113 2584 
Q 1688 2584 1439 2293 
Q 1191 2003 1191 1497 
Q 1191 994 1439 701 
Q 1688 409 2113 409 
Q 2538 409 2786 701 
Q 3034 994 3034 1497 
Q 3034 2003 2786 2293 
Q 2538 2584 2113 2584 
z
M 3366 4563 
L 3366 3988 
Q 3128 4100 2886 4159 
Q 2644 4219 2406 4219 
Q 1781 4219 1451 3797 
Q 1122 3375 1075 2522 
Q 1259 2794 1537 2939 
Q 1816 3084 2150 3084 
Q 2853 3084 3261 2657 
Q 3669 2231 3669 1497 
Q 3669 778 3244 343 
Q 2819 -91 2113 -91 
Q 1303 -91 875 529 
Q 447 1150 447 2328 
Q 447 3434 972 4092 
Q 1497 4750 2381 4750 
Q 2619 4750 2861 4703 
Q 3103 4656 3366 4563 
z
" transform="scale(0.015625)"/>
       </defs>
       <use xlink:href="#DejaVuSans-32"/>
       <use xlink:href="#DejaVuSans-2e" transform="translate(63.623047 0)"/>
       <use xlink:href="#DejaVuSans-33" transform="translate(95.410156 0)"/>
       <use xlink:href="#DejaVuSans-39" transform="translate(159.033203 0)"/>
       <use xlink:href="#DejaVuSans-36" transform="translate(222.65625 0)"/>
      </g>
     </g>
    </g>
    <g id="xtick_6">
     <g id="line2d_11">
      <path d="M 153.196173 155.41 
L 153.196173 26.88 
" clip-path="url(#p8958457b84)" style="fill: none; stroke-dasharray: 2.96,1.28; stroke-dashoffset: 0; stroke: #b0b0b0; stroke-opacity: 0.7; stroke-width: 0.8"/>
     </g>
     <g id="line2d_12">
      <g>
       <use xlink:href="#mcc0ec787f2" x="153.196173" y="155.41" style="stroke: #000000; stroke-width: 0.8"/>
      </g>
     </g>
     <g id="text_6">
      <!-- 2.995 -->
      <g transform="translate(155.955548 191.038125) rotate(-90) scale(0.1 -0.1)">
       <use xlink:href="#DejaVuSans-32"/>
       <use xlink:href="#DejaVuSans-2e" transform="translate(63.623047 0)"/>
       <use xlink:href="#DejaVuSans-39" transform="translate(95.410156 0)"/>
       <use xlink:href="#DejaVuSans-39" transform="translate(159.033203 0)"/>
       <use xlink:href="#DejaVuSans-35" transform="translate(222.65625 0)"/>
      </g>
     </g>
    </g>
    <g id="xtick_7">
     <g id="line2d_13">
      <path d="M 170.496034 155.41 
L 170.496034 26.88 
" clip-path="url(#p8958457b84)" style="fill: none; stroke-dasharray: 2.96,1.28; stroke-dashoffset: 0; stroke: #b0b0b0; stroke-opacity: 0.7; stroke-width: 0.8"/>
     </g>
     <g id="line2d_14">
      <g>
       <use xlink:href="#mcc0ec787f2" x="170.496034" y="155.41" style="stroke: #000000; stroke-width: 0.8"/>
      </g>
     </g>
     <g id="text_7">
      <!-- 3.594 -->
      <g transform="translate(173.255409 191.038125) rotate(-90) scale(0.1 -0.1)">
       <defs>
        <path id="DejaVuSans-34" d="M 2419 4116 
L 825 1625 
L 2419 1625 
L 2419 4116 
z
M 2253 4666 
L 3047 4666 
L 3047 1625 
L 3713 1625 
L 3713 1100 
L 3047 1100 
L 3047 0 
L 2419 0 
L 2419 1100 
L 313 1100 
L 313 1709 
L 2253 4666 
z
" transform="scale(0.015625)"/>
       </defs>
       <use xlink:href="#DejaVuSans-33"/>
       <use xlink:href="#DejaVuSans-2e" transform="translate(63.623047 0)"/>
       <use xlink:href="#DejaVuSans-35" transform="translate(95.410156 0)"/>
       <use xlink:href="#DejaVuSans-39" transform="translate(159.033203 0)"/>
       <use xlink:href="#DejaVuSans-34" transform="translate(222.65625 0)"/>
      </g>
     </g>
    </g>
    <g id="xtick_8">
     <g id="line2d_15">
      <path d="M 187.795894 155.41 
L 187.795894 26.88 
" clip-path="url(#p8958457b84)" style="fill: none; stroke-dasharray: 2.96,1.28; stroke-dashoffset: 0; stroke: #b0b0b0; stroke-opacity: 0.7; stroke-width: 0.8"/>
     </g>
     <g id="line2d_16">
      <g>
       <use xlink:href="#mcc0ec787f2" x="187.795894" y="155.41" style="stroke: #000000; stroke-width: 0.8"/>
      </g>
     </g>
     <g id="text_8">
      <!-- 4.193 -->
      <g transform="translate(190.555269 191.038125) rotate(-90) scale(0.1 -0.1)">
       <use xlink:href="#DejaVuSans-34"/>
       <use xlink:href="#DejaVuSans-2e" transform="translate(63.623047 0)"/>
       <use xlink:href="#DejaVuSans-31" transform="translate(95.410156 0)"/>
       <use xlink:href="#DejaVuSans-39" transform="translate(159.033203 0)"/>
       <use xlink:href="#DejaVuSans-33" transform="translate(222.65625 0)"/>
      </g>
     </g>
    </g>
    <g id="xtick_9">
     <g id="line2d_17">
      <path d="M 205.095754 155.41 
L 205.095754 26.88 
" clip-path="url(#p8958457b84)" style="fill: none; stroke-dasharray: 2.96,1.28; stroke-dashoffset: 0; stroke: #b0b0b0; stroke-opacity: 0.7; stroke-width: 0.8"/>
     </g>
     <g id="line2d_18">
      <g>
       <use xlink:href="#mcc0ec787f2" x="205.095754" y="155.41" style="stroke: #000000; stroke-width: 0.8"/>
      </g>
     </g>
     <g id="text_9">
      <!-- 4.792 -->
      <g transform="translate(207.855129 191.038125) rotate(-90) scale(0.1 -0.1)">
       <use xlink:href="#DejaVuSans-34"/>
       <use xlink:href="#DejaVuSans-2e" transform="translate(63.623047 0)"/>
       <use xlink:href="#DejaVuSans-37" transform="translate(95.410156 0)"/>
       <use xlink:href="#DejaVuSans-39" transform="translate(159.033203 0)"/>
       <use xlink:href="#DejaVuSans-32" transform="translate(222.65625 0)"/>
      </g>
     </g>
    </g>
    <g id="xtick_10">
     <g id="line2d_19">
      <path d="M 222.395615 155.41 
L 222.395615 26.88 
" clip-path="url(#p8958457b84)" style="fill: none; stroke-dasharray: 2.96,1.28; stroke-dashoffset: 0; stroke: #b0b0b0; stroke-opacity: 0.7; stroke-width: 0.8"/>
     </g>
     <g id="line2d_20">
      <g>
       <use xlink:href="#mcc0ec787f2" x="222.395615" y="155.41" style="stroke: #000000; stroke-width: 0.8"/>
      </g>
     </g>
     <g id="text_10">
      <!-- 5.391 -->
      <g transform="translate(225.15499 191.038125) rotate(-90) scale(0.1 -0.1)">
       <use xlink:href="#DejaVuSans-35"/>
       <use xlink:href="#DejaVuSans-2e" transform="translate(63.623047 0)"/>
       <use xlink:href="#DejaVuSans-33" transform="translate(95.410156 0)"/>
       <use xlink:href="#DejaVuSans-39" transform="translate(159.033203 0)"/>
       <use xlink:href="#DejaVuSans-31" transform="translate(222.65625 0)"/>
      </g>
     </g>
    </g>
    <g id="xtick_11">
     <g id="line2d_21">
      <path d="M 239.695475 155.41 
L 239.695475 26.88 
" clip-path="url(#p8958457b84)" style="fill: none; stroke-dasharray: 2.96,1.28; stroke-dashoffset: 0; stroke: #b0b0b0; stroke-opacity: 0.7; stroke-width: 0.8"/>
     </g>
     <g id="line2d_22">
      <g>
       <use xlink:href="#mcc0ec787f2" x="239.695475" y="155.41" style="stroke: #000000; stroke-width: 0.8"/>
      </g>
     </g>
     <g id="text_11">
      <!-- 5.990 -->
      <g transform="translate(242.45485 191.038125) rotate(-90) scale(0.1 -0.1)">
       <use xlink:href="#DejaVuSans-35"/>
       <use xlink:href="#DejaVuSans-2e" transform="translate(63.623047 0)"/>
       <use xlink:href="#DejaVuSans-39" transform="translate(95.410156 0)"/>
       <use xlink:href="#DejaVuSans-39" transform="translate(159.033203 0)"/>
       <use xlink:href="#DejaVuSans-30" transform="translate(222.65625 0)"/>
      </g>
     </g>
    </g>
    <g id="xtick_12">
     <g id="line2d_23">
      <path d="M 256.995335 155.41 
L 256.995335 26.88 
" clip-path="url(#p8958457b84)" style="fill: none; stroke-dasharray: 2.96,1.28; stroke-dashoffset: 0; stroke: #b0b0b0; stroke-opacity: 0.7; stroke-width: 0.8"/>
     </g>
     <g id="line2d_24">
      <g>
       <use xlink:href="#mcc0ec787f2" x="256.995335" y="155.41" style="stroke: #000000; stroke-width: 0.8"/>
      </g>
     </g>
     <g id="text_12">
      <!-- 6.589 -->
      <g transform="translate(259.75471 191.038125) rotate(-90) scale(0.1 -0.1)">
       <use xlink:href="#DejaVuSans-36"/>
       <use xlink:href="#DejaVuSans-2e" transform="translate(63.623047 0)"/>
       <use xlink:href="#DejaVuSans-35" transform="translate(95.410156 0)"/>
       <use xlink:href="#DejaVuSans-38" transform="translate(159.033203 0)"/>
       <use xlink:href="#DejaVuSans-39" transform="translate(222.65625 0)"/>
      </g>
     </g>
    </g>
    <g id="text_13">
     <!-- Market Cap (%) -->
     <g transform="translate(122.140469 202.636562) scale(0.1 -0.1)">
      <defs>
       <path id="DejaVuSans-4d" d="M 628 4666 
L 1569 4666 
L 2759 1491 
L 3956 4666 
L 4897 4666 
L 4897 0 
L 4281 0 
L 4281 4097 
L 3078 897 
L 2444 897 
L 1241 4097 
L 1241 0 
L 628 0 
L 628 4666 
z
" transform="scale(0.015625)"/>
       <path id="DejaVuSans-61" d="M 2194 1759 
Q 1497 1759 1228 1600 
Q 959 1441 959 1056 
Q 959 750 1161 570 
Q 1363 391 1709 391 
Q 2188 391 2477 730 
Q 2766 1069 2766 1631 
L 2766 1759 
L 2194 1759 
z
M 3341 1997 
L 3341 0 
L 2766 0 
L 2766 531 
Q 2569 213 2275 61 
Q 1981 -91 1556 -91 
Q 1019 -91 701 211 
Q 384 513 384 1019 
Q 384 1609 779 1909 
Q 1175 2209 1959 2209 
L 2766 2209 
L 2766 2266 
Q 2766 2663 2505 2880 
Q 2244 3097 1772 3097 
Q 1472 3097 1187 3025 
Q 903 2953 641 2809 
L 641 3341 
Q 956 3463 1253 3523 
Q 1550 3584 1831 3584 
Q 2591 3584 2966 3190 
Q 3341 2797 3341 1997 
z
" transform="scale(0.015625)"/>
       <path id="DejaVuSans-72" d="M 2631 2963 
Q 2534 3019 2420 3045 
Q 2306 3072 2169 3072 
Q 1681 3072 1420 2755 
Q 1159 2438 1159 1844 
L 1159 0 
L 581 0 
L 581 3500 
L 1159 3500 
L 1159 2956 
Q 1341 3275 1631 3429 
Q 1922 3584 2338 3584 
Q 2397 3584 2469 3576 
Q 2541 3569 2628 3553 
L 2631 2963 
z
" transform="scale(0.015625)"/>
       <path id="DejaVuSans-6b" d="M 581 4863 
L 1159 4863 
L 1159 1991 
L 2875 3500 
L 3609 3500 
L 1753 1863 
L 3688 0 
L 2938 0 
L 1159 1709 
L 1159 0 
L 581 0 
L 581 4863 
z
" transform="scale(0.015625)"/>
       <path id="DejaVuSans-65" d="M 3597 1894 
L 3597 1613 
L 953 1613 
Q 991 1019 1311 708 
Q 1631 397 2203 397 
Q 2534 397 2845 478 
Q 3156 559 3463 722 
L 3463 178 
Q 3153 47 2828 -22 
Q 2503 -91 2169 -91 
Q 1331 -91 842 396 
Q 353 884 353 1716 
Q 353 2575 817 3079 
Q 1281 3584 2069 3584 
Q 2775 3584 3186 3129 
Q 3597 2675 3597 1894 
z
M 3022 2063 
Q 3016 2534 2758 2815 
Q 2500 3097 2075 3097 
Q 1594 3097 1305 2825 
Q 1016 2553 972 2059 
L 3022 2063 
z
" transform="scale(0.015625)"/>
       <path id="DejaVuSans-74" d="M 1172 4494 
L 1172 3500 
L 2356 3500 
L 2356 3053 
L 1172 3053 
L 1172 1153 
Q 1172 725 1289 603 
Q 1406 481 1766 481 
L 2356 481 
L 2356 0 
L 1766 0 
Q 1100 0 847 248 
Q 594 497 594 1153 
L 594 3053 
L 172 3053 
L 172 3500 
L 594 3500 
L 594 4494 
L 1172 4494 
z
" transform="scale(0.015625)"/>
       <path id="DejaVuSans-20" transform="scale(0.015625)"/>
       <path id="DejaVuSans-43" d="M 4122 4306 
L 4122 3641 
Q 3803 3938 3442 4084 
Q 3081 4231 2675 4231 
Q 1875 4231 1450 3742 
Q 1025 3253 1025 2328 
Q 1025 1406 1450 917 
Q 1875 428 2675 428 
Q 3081 428 3442 575 
Q 3803 722 4122 1019 
L 4122 359 
Q 3791 134 3420 21 
Q 3050 -91 2638 -91 
Q 1578 -91 968 557 
Q 359 1206 359 2328 
Q 359 3453 968 4101 
Q 1578 4750 2638 4750 
Q 3056 4750 3426 4639 
Q 3797 4528 4122 4306 
z
" transform="scale(0.015625)"/>
       <path id="DejaVuSans-70" d="M 1159 525 
L 1159 -1331 
L 581 -1331 
L 581 3500 
L 1159 3500 
L 1159 2969 
Q 1341 3281 1617 3432 
Q 1894 3584 2278 3584 
Q 2916 3584 3314 3078 
Q 3713 2572 3713 1747 
Q 3713 922 3314 415 
Q 2916 -91 2278 -91 
Q 1894 -91 1617 61 
Q 1341 213 1159 525 
z
M 3116 1747 
Q 3116 2381 2855 2742 
Q 2594 3103 2138 3103 
Q 1681 3103 1420 2742 
Q 1159 2381 1159 1747 
Q 1159 1113 1420 752 
Q 1681 391 2138 391 
Q 2594 391 2855 752 
Q 3116 1113 3116 1747 
z
" transform="scale(0.015625)"/>
       <path id="DejaVuSans-28" d="M 1984 4856 
Q 1566 4138 1362 3434 
Q 1159 2731 1159 2009 
Q 1159 1288 1364 580 
Q 1569 -128 1984 -844 
L 1484 -844 
Q 1016 -109 783 600 
Q 550 1309 550 2009 
Q 550 2706 781 3412 
Q 1013 4119 1484 4856 
L 1984 4856 
z
" transform="scale(0.015625)"/>
       <path id="DejaVuSans-25" d="M 4653 2053 
Q 4381 2053 4226 1822 
Q 4072 1591 4072 1178 
Q 4072 772 4226 539 
Q 4381 306 4653 306 
Q 4919 306 5073 539 
Q 5228 772 5228 1178 
Q 5228 1588 5073 1820 
Q 4919 2053 4653 2053 
z
M 4653 2450 
Q 5147 2450 5437 2106 
Q 5728 1763 5728 1178 
Q 5728 594 5436 251 
Q 5144 -91 4653 -91 
Q 4153 -91 3862 251 
Q 3572 594 3572 1178 
Q 3572 1766 3864 2108 
Q 4156 2450 4653 2450 
z
M 1428 4353 
Q 1159 4353 1004 4120 
Q 850 3888 850 3481 
Q 850 3069 1003 2837 
Q 1156 2606 1428 2606 
Q 1700 2606 1854 2837 
Q 2009 3069 2009 3481 
Q 2009 3884 1853 4118 
Q 1697 4353 1428 4353 
z
M 4250 4750 
L 4750 4750 
L 1831 -91 
L 1331 -91 
L 4250 4750 
z
M 1428 4750 
Q 1922 4750 2215 4408 
Q 2509 4066 2509 3481 
Q 2509 2891 2217 2550 
Q 1925 2209 1428 2209 
Q 931 2209 642 2551 
Q 353 2894 353 3481 
Q 353 4063 643 4406 
Q 934 4750 1428 4750 
z
" transform="scale(0.015625)"/>
       <path id="DejaVuSans-29" d="M 513 4856 
L 1013 4856 
Q 1481 4119 1714 3412 
Q 1947 2706 1947 2009 
Q 1947 1309 1714 600 
Q 1481 -109 1013 -844 
L 513 -844 
Q 928 -128 1133 580 
Q 1338 1288 1338 2009 
Q 1338 2731 1133 3434 
Q 928 4138 513 4856 
z
" transform="scale(0.015625)"/>
      </defs>
      <use xlink:href="#DejaVuSans-4d"/>
      <use xlink:href="#DejaVuSans-61" transform="translate(86.279297 0)"/>
      <use xlink:href="#DejaVuSans-72" transform="translate(147.558594 0)"/>
      <use xlink:href="#DejaVuSans-6b" transform="translate(188.671875 0)"/>
      <use xlink:href="#DejaVuSans-65" transform="translate(242.957031 0)"/>
      <use xlink:href="#DejaVuSans-74" transform="translate(304.480469 0)"/>
      <use xlink:href="#DejaVuSans-20" transform="translate(343.689453 0)"/>
      <use xlink:href="#DejaVuSans-43" transform="translate(375.476562 0)"/>
      <use xlink:href="#DejaVuSans-61" transform="translate(445.300781 0)"/>
      <use xlink:href="#DejaVuSans-70" transform="translate(506.580078 0)"/>
      <use xlink:href="#DejaVuSans-20" transform="translate(570.056641 0)"/>
      <use xlink:href="#DejaVuSans-28" transform="translate(601.84375 0)"/>
      <use xlink:href="#DejaVuSans-25" transform="translate(640.857422 0)"/>
      <use xlink:href="#DejaVuSans-29" transform="translate(735.876953 0)"/>
     </g>
    </g>
   </g>
   <g id="matplotlib.axis_2">
    <g id="ytick_1">
     <g id="line2d_25">
      <path d="M 44.57 155.41 
L 277.2 155.41 
" clip-path="url(#p8958457b84)" style="fill: none; stroke-dasharray: 2.96,1.28; stroke-dashoffset: 0; stroke: #b0b0b0; stroke-opacity: 0.7; stroke-width: 0.8"/>
     </g>
     <g id="line2d_26">
      <defs>
       <path id="mc7312f432f" d="M 0 0 
L -3.5 0 
" style="stroke: #000000; stroke-width: 0.8"/>
      </defs>
      <g>
       <use xlink:href="#mc7312f432f" x="44.57" y="155.41" style="stroke: #000000; stroke-width: 0.8"/>
      </g>
     </g>
     <g id="text_14">
      <!-- 0 -->
      <g transform="translate(31.2075 159.209219) scale(0.1 -0.1)">
       <use xlink:href="#DejaVuSans-30"/>
      </g>
     </g>
    </g>
    <g id="ytick_2">
     <g id="line2d_27">
      <path d="M 44.57 129.806008 
L 277.2 129.806008 
" clip-path="url(#p8958457b84)" style="fill: none; stroke-dasharray: 2.96,1.28; stroke-dashoffset: 0; stroke: #b0b0b0; stroke-opacity: 0.7; stroke-width: 0.8"/>
     </g>
     <g id="line2d_28">
      <g>
       <use xlink:href="#mc7312f432f" x="44.57" y="129.806008" style="stroke: #000000; stroke-width: 0.8"/>
      </g>
     </g>
     <g id="text_15">
      <!-- 10 -->
      <g transform="translate(24.845 133.605227) scale(0.1 -0.1)">
       <use xlink:href="#DejaVuSans-31"/>
       <use xlink:href="#DejaVuSans-30" transform="translate(63.623047 0)"/>
      </g>
     </g>
    </g>
    <g id="ytick_3">
     <g id="line2d_29">
      <path d="M 44.57 104.202016 
L 277.2 104.202016 
" clip-path="url(#p8958457b84)" style="fill: none; stroke-dasharray: 2.96,1.28; stroke-dashoffset: 0; stroke: #b0b0b0; stroke-opacity: 0.7; stroke-width: 0.8"/>
     </g>
     <g id="line2d_30">
      <g>
       <use xlink:href="#mc7312f432f" x="44.57" y="104.202016" style="stroke: #000000; stroke-width: 0.8"/>
      </g>
     </g>
     <g id="text_16">
      <!-- 20 -->
      <g transform="translate(24.845 108.001235) scale(0.1 -0.1)">
       <use xlink:href="#DejaVuSans-32"/>
       <use xlink:href="#DejaVuSans-30" transform="translate(63.623047 0)"/>
      </g>
     </g>
    </g>
    <g id="ytick_4">
     <g id="line2d_31">
      <path d="M 44.57 78.598024 
L 277.2 78.598024 
" clip-path="url(#p8958457b84)" style="fill: none; stroke-dasharray: 2.96,1.28; stroke-dashoffset: 0; stroke: #b0b0b0; stroke-opacity: 0.7; stroke-width: 0.8"/>
     </g>
     <g id="line2d_32">
      <g>
       <use xlink:href="#mc7312f432f" x="44.57" y="78.598024" style="stroke: #000000; stroke-width: 0.8"/>
      </g>
     </g>
     <g id="text_17">
      <!-- 30 -->
      <g transform="translate(24.845 82.397243) scale(0.1 -0.1)">
       <use xlink:href="#DejaVuSans-33"/>
       <use xlink:href="#DejaVuSans-30" transform="translate(63.623047 0)"/>
      </g>
     </g>
    </g>
    <g id="ytick_5">
     <g id="line2d_33">
      <path d="M 44.57 52.994032 
L 277.2 52.994032 
" clip-path="url(#p8958457b84)" style="fill: none; stroke-dasharray: 2.96,1.28; stroke-dashoffset: 0; stroke: #b0b0b0; stroke-opacity: 0.7; stroke-width: 0.8"/>
     </g>
     <g id="line2d_34">
      <g>
       <use xlink:href="#mc7312f432f" x="44.57" y="52.994032" style="stroke: #000000; stroke-width: 0.8"/>
      </g>
     </g>
     <g id="text_18">
      <!-- 40 -->
      <g transform="translate(24.845 56.79325) scale(0.1 -0.1)">
       <use xlink:href="#DejaVuSans-34"/>
       <use xlink:href="#DejaVuSans-30" transform="translate(63.623047 0)"/>
      </g>
     </g>
    </g>
    <g id="ytick_6">
     <g id="line2d_35">
      <path d="M 44.57 27.39004 
L 277.2 27.39004 
" clip-path="url(#p8958457b84)" style="fill: none; stroke-dasharray: 2.96,1.28; stroke-dashoffset: 0; stroke: #b0b0b0; stroke-opacity: 0.7; stroke-width: 0.8"/>
     </g>
     <g id="line2d_36">
      <g>
       <use xlink:href="#mc7312f432f" x="44.57" y="27.39004" style="stroke: #000000; stroke-width: 0.8"/>
      </g>
     </g>
     <g id="text_19">
      <!-- 50 -->
      <g transform="translate(24.845 31.189258) scale(0.1 -0.1)">
       <use xlink:href="#DejaVuSans-35"/>
       <use xlink:href="#DejaVuSans-30" transform="translate(63.623047 0)"/>
      </g>
     </g>
    </g>
    <g id="text_20">
     <!-- % of Tickers -->
     <g transform="translate(18.765313 121.380156) rotate(-90) scale(0.1 -0.1)">
      <defs>
       <path id="DejaVuSans-6f" d="M 1959 3097 
Q 1497 3097 1228 2736 
Q 959 2375 959 1747 
Q 959 1119 1226 758 
Q 1494 397 1959 397 
Q 2419 397 2687 759 
Q 2956 1122 2956 1747 
Q 2956 2369 2687 2733 
Q 2419 3097 1959 3097 
z
M 1959 3584 
Q 2709 3584 3137 3096 
Q 3566 2609 3566 1747 
Q 3566 888 3137 398 
Q 2709 -91 1959 -91 
Q 1206 -91 779 398 
Q 353 888 353 1747 
Q 353 2609 779 3096 
Q 1206 3584 1959 3584 
z
" transform="scale(0.015625)"/>
       <path id="DejaVuSans-66" d="M 2375 4863 
L 2375 4384 
L 1825 4384 
Q 1516 4384 1395 4259 
Q 1275 4134 1275 3809 
L 1275 3500 
L 2222 3500 
L 2222 3053 
L 1275 3053 
L 1275 0 
L 697 0 
L 697 3053 
L 147 3053 
L 147 3500 
L 697 3500 
L 697 3744 
Q 697 4328 969 4595 
Q 1241 4863 1831 4863 
L 2375 4863 
z
" transform="scale(0.015625)"/>
       <path id="DejaVuSans-54" d="M -19 4666 
L 3928 4666 
L 3928 4134 
L 2272 4134 
L 2272 0 
L 1638 0 
L 1638 4134 
L -19 4134 
L -19 4666 
z
" transform="scale(0.015625)"/>
       <path id="DejaVuSans-69" d="M 603 3500 
L 1178 3500 
L 1178 0 
L 603 0 
L 603 3500 
z
M 603 4863 
L 1178 4863 
L 1178 4134 
L 603 4134 
L 603 4863 
z
" transform="scale(0.015625)"/>
       <path id="DejaVuSans-63" d="M 3122 3366 
L 3122 2828 
Q 2878 2963 2633 3030 
Q 2388 3097 2138 3097 
Q 1578 3097 1268 2742 
Q 959 2388 959 1747 
Q 959 1106 1268 751 
Q 1578 397 2138 397 
Q 2388 397 2633 464 
Q 2878 531 3122 666 
L 3122 134 
Q 2881 22 2623 -34 
Q 2366 -91 2075 -91 
Q 1284 -91 818 406 
Q 353 903 353 1747 
Q 353 2603 823 3093 
Q 1294 3584 2113 3584 
Q 2378 3584 2631 3529 
Q 2884 3475 3122 3366 
z
" transform="scale(0.015625)"/>
       <path id="DejaVuSans-73" d="M 2834 3397 
L 2834 2853 
Q 2591 2978 2328 3040 
Q 2066 3103 1784 3103 
Q 1356 3103 1142 2972 
Q 928 2841 928 2578 
Q 928 2378 1081 2264 
Q 1234 2150 1697 2047 
L 1894 2003 
Q 2506 1872 2764 1633 
Q 3022 1394 3022 966 
Q 3022 478 2636 193 
Q 2250 -91 1575 -91 
Q 1294 -91 989 -36 
Q 684 19 347 128 
L 347 722 
Q 666 556 975 473 
Q 1284 391 1588 391 
Q 1994 391 2212 530 
Q 2431 669 2431 922 
Q 2431 1156 2273 1281 
Q 2116 1406 1581 1522 
L 1381 1569 
Q 847 1681 609 1914 
Q 372 2147 372 2553 
Q 372 3047 722 3315 
Q 1072 3584 1716 3584 
Q 2034 3584 2315 3537 
Q 2597 3491 2834 3397 
z
" transform="scale(0.015625)"/>
      </defs>
      <use xlink:href="#DejaVuSans-25"/>
      <use xlink:href="#DejaVuSans-20" transform="translate(95.019531 0)"/>
      <use xlink:href="#DejaVuSans-6f" transform="translate(126.806641 0)"/>
      <use xlink:href="#DejaVuSans-66" transform="translate(187.988281 0)"/>
      <use xlink:href="#DejaVuSans-20" transform="translate(223.193359 0)"/>
      <use xlink:href="#DejaVuSans-54" transform="translate(254.980469 0)"/>
      <use xlink:href="#DejaVuSans-69" transform="translate(312.939453 0)"/>
      <use xlink:href="#DejaVuSans-63" transform="translate(340.722656 0)"/>
      <use xlink:href="#DejaVuSans-6b" transform="translate(395.703125 0)"/>
      <use xlink:href="#DejaVuSans-65" transform="translate(449.988281 0)"/>
      <use xlink:href="#DejaVuSans-72" transform="translate(511.511719 0)"/>
      <use xlink:href="#DejaVuSans-73" transform="translate(552.625 0)"/>
     </g>
    </g>
   </g>
   <g id="patch_102">
    <path d="M 44.57 155.41 
L 44.57 26.88 
" style="fill: none; stroke: #000000; stroke-width: 0.8; stroke-linejoin: miter; stroke-linecap: square"/>
   </g>
   <g id="patch_103">
    <path d="M 277.2 155.41 
L 277.2 26.88 
" style="fill: none; stroke: #000000; stroke-width: 0.8; stroke-linejoin: miter; stroke-linecap: square"/>
   </g>
   <g id="patch_104">
    <path d="M 44.57 155.41 
L 277.2 155.41 
" style="fill: none; stroke: #000000; stroke-width: 0.8; stroke-linejoin: miter; stroke-linecap: square"/>
   </g>
   <g id="patch_105">
    <path d="M 44.57 26.88 
L 277.2 26.88 
" style="fill: none; stroke: #000000; stroke-width: 0.8; stroke-linejoin: miter; stroke-linecap: square"/>
   </g>
   <g id="text_21">
    <!-- ABBV -->
    <g transform="translate(91.997688 154.38788) rotate(-90) scale(0.08 -0.08)">
     <defs>
      <path id="DejaVuSans-41" d="M 2188 4044 
L 1331 1722 
L 3047 1722 
L 2188 4044 
z
M 1831 4666 
L 2547 4666 
L 4325 0 
L 3669 0 
L 3244 1197 
L 1141 1197 
L 716 0 
L 50 0 
L 1831 4666 
z
" transform="scale(0.015625)"/>
      <path id="DejaVuSans-42" d="M 1259 2228 
L 1259 519 
L 2272 519 
Q 2781 519 3026 730 
Q 3272 941 3272 1375 
Q 3272 1813 3026 2020 
Q 2781 2228 2272 2228 
L 1259 2228 
z
M 1259 4147 
L 1259 2741 
L 2194 2741 
Q 2656 2741 2882 2914 
Q 3109 3088 3109 3444 
Q 3109 3797 2882 3972 
Q 2656 4147 2194 4147 
L 1259 4147 
z
M 628 4666 
L 2241 4666 
Q 2963 4666 3353 4366 
Q 3744 4066 3744 3513 
Q 3744 3084 3544 2831 
Q 3344 2578 2956 2516 
Q 3422 2416 3680 2098 
Q 3938 1781 3938 1306 
Q 3938 681 3513 340 
Q 3088 0 2303 0 
L 628 0 
L 628 4666 
z
" transform="scale(0.015625)"/>
      <path id="DejaVuSans-56" d="M 1831 0 
L 50 4666 
L 709 4666 
L 2188 738 
L 3669 4666 
L 4325 4666 
L 2547 0 
L 1831 0 
z
" transform="scale(0.015625)"/>
     </defs>
     <use xlink:href="#DejaVuSans-41"/>
     <use xlink:href="#DejaVuSans-42" transform="translate(68.408203 0)"/>
     <use xlink:href="#DejaVuSans-42" transform="translate(137.011719 0)"/>
     <use xlink:href="#DejaVuSans-56" transform="translate(202.490234 0)"/>
    </g>
   </g>
   <g id="text_22">
    <!-- ORCL -->
    <g transform="translate(95.842102 154.38788) rotate(-90) scale(0.08 -0.08)">
     <defs>
      <path id="DejaVuSans-4f" d="M 2522 4238 
Q 1834 4238 1429 3725 
Q 1025 3213 1025 2328 
Q 1025 1447 1429 934 
Q 1834 422 2522 422 
Q 3209 422 3611 934 
Q 4013 1447 4013 2328 
Q 4013 3213 3611 3725 
Q 3209 4238 2522 4238 
z
M 2522 4750 
Q 3503 4750 4090 4092 
Q 4678 3434 4678 2328 
Q 4678 1225 4090 567 
Q 3503 -91 2522 -91 
Q 1538 -91 948 565 
Q 359 1222 359 2328 
Q 359 3434 948 4092 
Q 1538 4750 2522 4750 
z
" transform="scale(0.015625)"/>
      <path id="DejaVuSans-52" d="M 2841 2188 
Q 3044 2119 3236 1894 
Q 3428 1669 3622 1275 
L 4263 0 
L 3584 0 
L 2988 1197 
Q 2756 1666 2539 1819 
Q 2322 1972 1947 1972 
L 1259 1972 
L 1259 0 
L 628 0 
L 628 4666 
L 2053 4666 
Q 2853 4666 3247 4331 
Q 3641 3997 3641 3322 
Q 3641 2881 3436 2590 
Q 3231 2300 2841 2188 
z
M 1259 4147 
L 1259 2491 
L 2053 2491 
Q 2509 2491 2742 2702 
Q 2975 2913 2975 3322 
Q 2975 3731 2742 3939 
Q 2509 4147 2053 4147 
L 1259 4147 
z
" transform="scale(0.015625)"/>
      <path id="DejaVuSans-4c" d="M 628 4666 
L 1259 4666 
L 1259 531 
L 3531 531 
L 3531 0 
L 628 0 
L 628 4666 
z
" transform="scale(0.015625)"/>
     </defs>
     <use xlink:href="#DejaVuSans-4f"/>
     <use xlink:href="#DejaVuSans-52" transform="translate(78.710938 0)"/>
     <use xlink:href="#DejaVuSans-43" transform="translate(143.193359 0)"/>
     <use xlink:href="#DejaVuSans-4c" transform="translate(213.017578 0)"/>
    </g>
   </g>
   <g id="text_23">
    <!-- COST -->
    <g transform="translate(97.764309 154.38788) rotate(-90) scale(0.08 -0.08)">
     <defs>
      <path id="DejaVuSans-53" d="M 3425 4513 
L 3425 3897 
Q 3066 4069 2747 4153 
Q 2428 4238 2131 4238 
Q 1616 4238 1336 4038 
Q 1056 3838 1056 3469 
Q 1056 3159 1242 3001 
Q 1428 2844 1947 2747 
L 2328 2669 
Q 3034 2534 3370 2195 
Q 3706 1856 3706 1288 
Q 3706 609 3251 259 
Q 2797 -91 1919 -91 
Q 1588 -91 1214 -16 
Q 841 59 441 206 
L 441 856 
Q 825 641 1194 531 
Q 1563 422 1919 422 
Q 2459 422 2753 634 
Q 3047 847 3047 1241 
Q 3047 1584 2836 1778 
Q 2625 1972 2144 2069 
L 1759 2144 
Q 1053 2284 737 2584 
Q 422 2884 422 3419 
Q 422 4038 858 4394 
Q 1294 4750 2059 4750 
Q 2388 4750 2728 4690 
Q 3069 4631 3425 4513 
z
" transform="scale(0.015625)"/>
     </defs>
     <use xlink:href="#DejaVuSans-43"/>
     <use xlink:href="#DejaVuSans-4f" transform="translate(69.824219 0)"/>
     <use xlink:href="#DejaVuSans-53" transform="translate(148.535156 0)"/>
     <use xlink:href="#DejaVuSans-54" transform="translate(212.011719 0)"/>
    </g>
   </g>
   <g id="text_24">
    <!-- MA -->
    <g transform="translate(101.608722 154.38788) rotate(-90) scale(0.08 -0.08)">
     <use xlink:href="#DejaVuSans-4d"/>
     <use xlink:href="#DejaVuSans-41" transform="translate(86.279297 0)"/>
    </g>
   </g>
   <g id="text_25">
    <!-- V -->
    <g transform="translate(107.375342 154.38788) rotate(-90) scale(0.08 -0.08)">
     <use xlink:href="#DejaVuSans-56"/>
    </g>
   </g>
   <g id="text_26">
    <!-- JPM -->
    <g transform="translate(113.141962 154.38788) rotate(-90) scale(0.08 -0.08)">
     <defs>
      <path id="DejaVuSans-4a" d="M 628 4666 
L 1259 4666 
L 1259 325 
Q 1259 -519 939 -900 
Q 619 -1281 -91 -1281 
L -331 -1281 
L -331 -750 
L -134 -750 
Q 284 -750 456 -515 
Q 628 -281 628 325 
L 628 4666 
z
" transform="scale(0.015625)"/>
      <path id="DejaVuSans-50" d="M 1259 4147 
L 1259 2394 
L 2053 2394 
Q 2494 2394 2734 2622 
Q 2975 2850 2975 3272 
Q 2975 3691 2734 3919 
Q 2494 4147 2053 4147 
L 1259 4147 
z
M 628 4666 
L 2053 4666 
Q 2838 4666 3239 4311 
Q 3641 3956 3641 3272 
Q 3641 2581 3239 2228 
Q 2838 1875 2053 1875 
L 1259 1875 
L 1259 0 
L 628 0 
L 628 4666 
z
" transform="scale(0.015625)"/>
     </defs>
     <use xlink:href="#DejaVuSans-4a"/>
     <use xlink:href="#DejaVuSans-50" transform="translate(29.492188 0)"/>
     <use xlink:href="#DejaVuSans-4d" transform="translate(89.794922 0)"/>
    </g>
   </g>
   <g id="text_27">
    <!-- WMT -->
    <g transform="translate(116.986376 154.38788) rotate(-90) scale(0.08 -0.08)">
     <defs>
      <path id="DejaVuSans-57" d="M 213 4666 
L 850 4666 
L 1831 722 
L 2809 4666 
L 3519 4666 
L 4500 722 
L 5478 4666 
L 6119 4666 
L 4947 0 
L 4153 0 
L 3169 4050 
L 2175 0 
L 1381 0 
L 213 4666 
z
" transform="scale(0.015625)"/>
     </defs>
     <use xlink:href="#DejaVuSans-57"/>
     <use xlink:href="#DejaVuSans-4d" transform="translate(98.876953 0)"/>
     <use xlink:href="#DejaVuSans-54" transform="translate(185.15625 0)"/>
    </g>
   </g>
   <g id="text_28">
    <!-- LLY -->
    <g transform="translate(118.908582 154.38788) rotate(-90) scale(0.08 -0.08)">
     <defs>
      <path id="DejaVuSans-59" d="M -13 4666 
L 666 4666 
L 1959 2747 
L 3244 4666 
L 3922 4666 
L 2272 2222 
L 2272 0 
L 1638 0 
L 1638 2222 
L -13 4666 
z
" transform="scale(0.015625)"/>
     </defs>
     <use xlink:href="#DejaVuSans-4c"/>
     <use xlink:href="#DejaVuSans-4c" transform="translate(55.712891 0)"/>
     <use xlink:href="#DejaVuSans-59" transform="translate(98.175781 0)"/>
    </g>
   </g>
   <g id="text_29">
    <!-- GOOGL -->
    <g transform="translate(128.519616 154.38788) rotate(-90) scale(0.08 -0.08)">
     <defs>
      <path id="DejaVuSans-47" d="M 3809 666 
L 3809 1919 
L 2778 1919 
L 2778 2438 
L 4434 2438 
L 4434 434 
Q 4069 175 3628 42 
Q 3188 -91 2688 -91 
Q 1594 -91 976 548 
Q 359 1188 359 2328 
Q 359 3472 976 4111 
Q 1594 4750 2688 4750 
Q 3144 4750 3555 4637 
Q 3966 4525 4313 4306 
L 4313 3634 
Q 3963 3931 3569 4081 
Q 3175 4231 2741 4231 
Q 1884 4231 1454 3753 
Q 1025 3275 1025 2328 
Q 1025 1384 1454 906 
Q 1884 428 2741 428 
Q 3075 428 3337 486 
Q 3600 544 3809 666 
z
" transform="scale(0.015625)"/>
     </defs>
     <use xlink:href="#DejaVuSans-47"/>
     <use xlink:href="#DejaVuSans-4f" transform="translate(77.490234 0)"/>
     <use xlink:href="#DejaVuSans-4f" transform="translate(156.201172 0)"/>
     <use xlink:href="#DejaVuSans-47" transform="translate(234.912109 0)"/>
     <use xlink:href="#DejaVuSans-4c" transform="translate(312.402344 0)"/>
    </g>
   </g>
   <g id="text_30">
    <!-- META -->
    <g transform="translate(143.89727 154.38788) rotate(-90) scale(0.08 -0.08)">
     <defs>
      <path id="DejaVuSans-45" d="M 628 4666 
L 3578 4666 
L 3578 4134 
L 1259 4134 
L 1259 2753 
L 3481 2753 
L 3481 2222 
L 1259 2222 
L 1259 531 
L 3634 531 
L 3634 0 
L 628 0 
L 628 4666 
z
" transform="scale(0.015625)"/>
     </defs>
     <use xlink:href="#DejaVuSans-4d"/>
     <use xlink:href="#DejaVuSans-45" transform="translate(86.279297 0)"/>
     <use xlink:href="#DejaVuSans-54" transform="translate(149.462891 0)"/>
     <use xlink:href="#DejaVuSans-41" transform="translate(202.796875 0)"/>
    </g>
   </g>
   <g id="text_31">
    <!-- AMZN -->
    <g transform="translate(191.952437 154.38788) rotate(-90) scale(0.08 -0.08)">
     <defs>
      <path id="DejaVuSans-5a" d="M 359 4666 
L 4025 4666 
L 4025 4184 
L 1075 531 
L 4097 531 
L 4097 0 
L 288 0 
L 288 481 
L 3238 4134 
L 359 4134 
L 359 4666 
z
" transform="scale(0.015625)"/>
      <path id="DejaVuSans-4e" d="M 628 4666 
L 1478 4666 
L 3547 763 
L 3547 4666 
L 4159 4666 
L 4159 0 
L 3309 0 
L 1241 3903 
L 1241 0 
L 628 0 
L 628 4666 
z
" transform="scale(0.015625)"/>
     </defs>
     <use xlink:href="#DejaVuSans-41"/>
     <use xlink:href="#DejaVuSans-4d" transform="translate(68.408203 0)"/>
     <use xlink:href="#DejaVuSans-5a" transform="translate(154.6875 0)"/>
     <use xlink:href="#DejaVuSans-4e" transform="translate(223.193359 0)"/>
    </g>
   </g>
   <g id="text_32">
    <!-- NVDA -->
    <g transform="translate(232.318778 154.38788) rotate(-90) scale(0.08 -0.08)">
     <defs>
      <path id="DejaVuSans-44" d="M 1259 4147 
L 1259 519 
L 2022 519 
Q 2988 519 3436 956 
Q 3884 1394 3884 2338 
Q 3884 3275 3436 3711 
Q 2988 4147 2022 4147 
L 1259 4147 
z
M 628 4666 
L 1925 4666 
Q 3281 4666 3915 4102 
Q 4550 3538 4550 2338 
Q 4550 1131 3912 565 
Q 3275 0 1925 0 
L 628 0 
L 628 4666 
z
" transform="scale(0.015625)"/>
     </defs>
     <use xlink:href="#DejaVuSans-4e"/>
     <use xlink:href="#DejaVuSans-56" transform="translate(74.804688 0)"/>
     <use xlink:href="#DejaVuSans-44" transform="translate(143.212891 0)"/>
     <use xlink:href="#DejaVuSans-41" transform="translate(218.464844 0)"/>
    </g>
   </g>
   <g id="text_33">
    <!-- MSFT -->
    <g transform="translate(247.696432 154.38788) rotate(-90) scale(0.08 -0.08)">
     <defs>
      <path id="DejaVuSans-46" d="M 628 4666 
L 3309 4666 
L 3309 4134 
L 1259 4134 
L 1259 2759 
L 3109 2759 
L 3109 2228 
L 1259 2228 
L 1259 0 
L 628 0 
L 628 4666 
z
" transform="scale(0.015625)"/>
     </defs>
     <use xlink:href="#DejaVuSans-4d"/>
     <use xlink:href="#DejaVuSans-53" transform="translate(86.279297 0)"/>
     <use xlink:href="#DejaVuSans-46" transform="translate(149.755859 0)"/>
     <use xlink:href="#DejaVuSans-54" transform="translate(205.525391 0)"/>
    </g>
   </g>
   <g id="text_34">
    <!-- AAPL -->
    <g transform="translate(261.151879 154.38788) rotate(-90) scale(0.08 -0.08)">
     <use xlink:href="#DejaVuSans-41"/>
     <use xlink:href="#DejaVuSans-41" transform="translate(71.158203 0)"/>
     <use xlink:href="#DejaVuSans-50" transform="translate(139.566406 0)"/>
     <use xlink:href="#DejaVuSans-4c" transform="translate(199.869141 0)"/>
    </g>
   </g>
   <g id="text_35">
    <!-- Market cap distribution -->
    <g transform="translate(91.473437 20.88) scale(0.12 -0.12)">
     <defs>
      <path id="DejaVuSans-64" d="M 2906 2969 
L 2906 4863 
L 3481 4863 
L 3481 0 
L 2906 0 
L 2906 525 
Q 2725 213 2448 61 
Q 2172 -91 1784 -91 
Q 1150 -91 751 415 
Q 353 922 353 1747 
Q 353 2572 751 3078 
Q 1150 3584 1784 3584 
Q 2172 3584 2448 3432 
Q 2725 3281 2906 2969 
z
M 947 1747 
Q 947 1113 1208 752 
Q 1469 391 1925 391 
Q 2381 391 2643 752 
Q 2906 1113 2906 1747 
Q 2906 2381 2643 2742 
Q 2381 3103 1925 3103 
Q 1469 3103 1208 2742 
Q 947 2381 947 1747 
z
" transform="scale(0.015625)"/>
      <path id="DejaVuSans-62" d="M 3116 1747 
Q 3116 2381 2855 2742 
Q 2594 3103 2138 3103 
Q 1681 3103 1420 2742 
Q 1159 2381 1159 1747 
Q 1159 1113 1420 752 
Q 1681 391 2138 391 
Q 2594 391 2855 752 
Q 3116 1113 3116 1747 
z
M 1159 2969 
Q 1341 3281 1617 3432 
Q 1894 3584 2278 3584 
Q 2916 3584 3314 3078 
Q 3713 2572 3713 1747 
Q 3713 922 3314 415 
Q 2916 -91 2278 -91 
Q 1894 -91 1617 61 
Q 1341 213 1159 525 
L 1159 0 
L 581 0 
L 581 4863 
L 1159 4863 
L 1159 2969 
z
" transform="scale(0.015625)"/>
      <path id="DejaVuSans-75" d="M 544 1381 
L 544 3500 
L 1119 3500 
L 1119 1403 
Q 1119 906 1312 657 
Q 1506 409 1894 409 
Q 2359 409 2629 706 
Q 2900 1003 2900 1516 
L 2900 3500 
L 3475 3500 
L 3475 0 
L 2900 0 
L 2900 538 
Q 2691 219 2414 64 
Q 2138 -91 1772 -91 
Q 1169 -91 856 284 
Q 544 659 544 1381 
z
M 1991 3584 
L 1991 3584 
z
" transform="scale(0.015625)"/>
      <path id="DejaVuSans-6e" d="M 3513 2113 
L 3513 0 
L 2938 0 
L 2938 2094 
Q 2938 2591 2744 2837 
Q 2550 3084 2163 3084 
Q 1697 3084 1428 2787 
Q 1159 2491 1159 1978 
L 1159 0 
L 581 0 
L 581 3500 
L 1159 3500 
L 1159 2956 
Q 1366 3272 1645 3428 
Q 1925 3584 2291 3584 
Q 2894 3584 3203 3211 
Q 3513 2838 3513 2113 
z
" transform="scale(0.015625)"/>
     </defs>
     <use xlink:href="#DejaVuSans-4d"/>
     <use xlink:href="#DejaVuSans-61" transform="translate(86.279297 0)"/>
     <use xlink:href="#DejaVuSans-72" transform="translate(147.558594 0)"/>
     <use xlink:href="#DejaVuSans-6b" transform="translate(188.671875 0)"/>
     <use xlink:href="#DejaVuSans-65" transform="translate(242.957031 0)"/>
     <use xlink:href="#DejaVuSans-74" transform="translate(304.480469 0)"/>
     <use xlink:href="#DejaVuSans-20" transform="translate(343.689453 0)"/>
     <use xlink:href="#DejaVuSans-63" transform="translate(375.476562 0)"/>
     <use xlink:href="#DejaVuSans-61" transform="translate(430.457031 0)"/>
     <use xlink:href="#DejaVuSans-70" transform="translate(491.736328 0)"/>
     <use xlink:href="#DejaVuSans-20" transform="translate(555.212891 0)"/>
     <use xlink:href="#DejaVuSans-64" transform="translate(587 0)"/>
     <use xlink:href="#DejaVuSans-69" transform="translate(650.476562 0)"/>
     <use xlink:href="#DejaVuSans-73" transform="translate(678.259766 0)"/>
     <use xlink:href="#DejaVuSans-74" transform="translate(730.359375 0)"/>
     <use xlink:href="#DejaVuSans-72" transform="translate(769.568359 0)"/>
     <use xlink:href="#DejaVuSans-69" transform="translate(810.681641 0)"/>
     <use xlink:href="#DejaVuSans-62" transform="translate(838.464844 0)"/>
     <use xlink:href="#DejaVuSans-75" transform="translate(901.941406 0)"/>
     <use xlink:href="#DejaVuSans-74" transform="translate(965.320312 0)"/>
     <use xlink:href="#DejaVuSans-69" transform="translate(1004.529297 0)"/>
     <use xlink:href="#DejaVuSans-6f" transform="translate(1032.3125 0)"/>
     <use xlink:href="#DejaVuSans-6e" transform="translate(1093.494141 0)"/>
    </g>
   </g>
  </g>
 </g>
 <defs>
  <clipPath id="p8958457b84">
   <rect x="44.57" y="26.88" width="232.63" height="128.53"/>
  </clipPath>
 </defs>
</svg>
